/* XPM */
static char *_1f8f8e092934de8c31235c04801c86aQzLRw5ShVqazq1N2[] = {
/* columns rows colors chars-per-pixel */
"64 64 7 1 ",
"  c None",
". c #8BBA35",
"X c #FFAA00",
"o c #F79528",
"O c #FFC800",
"+ c #FFEECC",
"@ c white",
/* pixels */
"                                                                ",
"                                                                ",
"                                                                ",
"                                                                ",
"                                                                ",
"                                                                ",
"                                                                ",
"                                                                ",
"                                                                ",
"                                                                ",
"                                                                ",
"                                                                ",
"                                                                ",
"                                   ++                           ",
"                                 ++@@++...                      ",
"                                +@@@@ooo..                      ",
"                               +@@@@ooooo.                      ",
"                              +@@@@oooooo@+                     ",
"                             +@@@@ooooooo@@++                   ",
"                           ++@@@@ooooooo@@@@@+                  ",
"                          +@@@@@@ooooo@@@@@@@@+                 ",
"                         +@@@@@@@ooo@@@@@@@@@@@+                ",
"                        +@@@@@@@@@@@@@@@@@@+++++                ",
"                      ++@@@@@@@@@@@@@@@++++XXXXO                ",
"                     +@@@@@@@@@@@++++++XXXXXXXXO                ",
"                    +@@@@@@@+++++XXXXXXXXXXXXXXO                ",
"                   +@@@+++++XXXXXXXXXXXXXXXXXXXO                ",
"                  +++++XXXXXXXXXXXXXXXXXXXXXXXXO                ",
"                  OXXXXXXXXXXXXXXXXXXXXXXXXXXXXO                ",
"                  OXXXXXXXXXXXXXXXXXXXXXXXXXXXXO                ",
"                  OXXXXXXXXXXXXXXXXXXXXXXXXXXXXO                ",
"                  OXXXXXXXXXXXXXXXXXXXXXXXXXXXXO                ",
"                  OXXXXXXXXXXXXXXXXXXXXXXXXXXXXO                ",
"                  OXXXXXXXXXXXXXXXXXXXXXXXXXXXXO                ",
"                  OXXXXXXXXXXXXXXXXXXXXXXXOOOOOO                ",
"                  OXXXXXXXXXXXXXXXXOOOOOOO                      ",
"                  OXXXXXXXXXXXOOOOO                             ",
"                  OXXXXXOOOOOO                                  ",
"                  OOOOOO                                        ",
"                                                                ",
"                                                                ",
"                                                                ",
"                                                                ",
"                                                                ",
"                                                                ",
"                                                                ",
"                                                                ",
"                                                                ",
"                                                                ",
"                                                                ",
"                                                                ",
"                                                                ",
"                                                                ",
"                                                                ",
"                                                                ",
"                                                                ",
"                                                                ",
"                                                                ",
"                                                                ",
"                                                                ",
"                                                                ",
"                                                                ",
"                                                                ",
"                                                                "
};
