/* XPM */
static char *_cdfca094d814cc1d0ec9f6e10db617bB5QHrutupL2iK8oc[] = {
/* columns rows colors chars-per-pixel */
"64 64 6 1 ",
"  c None",
". c black",
"X c red",
"o c #B8E6FC",
"O c #F7CDE9",
"+ c white",
/* pixels */
"                                        ......                  ",
"                 ......                 ......                  ",
"                 ......               ..oooo..                  ",
"                 ..oooo..             ..oooo..                  ",
"                 ..oooo..             ..ooOO..                  ",
"                 ..OOoo..             ..ooOO..                  ",
"                 ..OOoo..             ..ooOO..                  ",
"                 ..OOoo..             ..ooOO..                  ",
"                 ..OOoo..             ..ooOO..                  ",
"                 ..OOoo..             ..ooOO..                  ",
"                 ..OOoo..             ..ooOO..                  ",
"                 ..OOoo..             ..ooOO..                  ",
"                 ..OOoo..             ..ooOO..                  ",
"                 ..OOoo..             ..ooOO..                  ",
"                 ..OOoo..             ..ooOO..                  ",
"                 ..OOoo..  .........  ..ooOO..                  ",
"                 ..OOoo..  .........  ..ooOO..                  ",
"                   ..oo....ooooooooo....oo..                    ",
"                   ..oo....ooooooooo....oo..                    ",
"                   ..ooooooooooooooooooooo..                    ",
"                   ..ooooooooooooooooooooo..                    ",
"                   ..ooooooooooooooooooooo..                    ",
"                 ..ooooooooooooooooooooooooo..                  ",
"                 ..ooooooooooooooooooooooooo..                  ",
"                 ..ooooooooooooooooooooooooo..                  ",
"                 ..ooooooooooooooooooooooooo..                  ",
"                 ..ooooooooooooooooooooooooo..                  ",
"                 ..ooooooooooooooooooooooooo..                  ",
"                 ..ooooooooooooooooooooooooo..                  ",
"                 ..oooo..ooooooooooooo..oooo..                  ",
"                 ..oo..oo..ooooooooo..oo..oo..                  ",
"                 ..ooooooooooooooooooooooooo..                  ",
"                 ..ooooooooooooooooooooooooo..                  ",
"                 ..ooooooooooooooooooooooooo..                  ",
"                 ..oooXoXoooooOOOoooooXoXooo..                  ",
"                 ..ooXXXXXoooooOoooooXXXXXoo..                  ",
"                 ..ooXXXXXoooooooooooXXXXXoo..                  ",
"        ......   ..oooXXXoo.ooooooo.ooXXXooo..  .......         ",
"        ......   ..ooooXooo.ooooooo.oooXoooo..  .......         ",
"        ..++++.......ooooooo.......ooooooo......++++...         ",
"        ..++++.......ooooooooooooooooooooo......++++...         ",
"        ..++ooooooo......ooooooooooooo......oooooo++...         ",
"        ..++ooooooo......ooooooooooooo......oooooo++...         ",
"          ....ooooooooooo.............oooooooooo.....           ",
"          ....ooooooooooo.............oooooooooo.....           ",
"              .....ooooooooooooooooooooooooo....                ",
"              .....ooooooooooooooooooooooooo....                ",
"                   ....oooooooooooXoXooo....                    ",
"                   ....ooooooooooXXXXXoo....                    ",
"                     ..ooooooooooXXXXXoo..                      ",
"                     ..oooooooooooXXXooo..                      ",
"                     ..ooooooooooooXoooo..                      ",
"                     ..ooooooooooooooooo..                      ",
"                     ..ooooooooooooooooooo..                    ",
"                   ..ooooooooooooooooooooo..                    ",
"                   ..ooooooooooooooooooooo..                    ",
"                   ..ooooooooooooooooooooo..                    ",
"                   ..ooooooooooooooooooooo..                    ",
"                   ..oooooo.........oooooo..                    ",
"                   ..oooooo.........oooooo..                    ",
"                 ..++++++..         ..++++++..                  ",
"                 ..++++++..         ..++++++..                  ",
"                 ........             ........                  ",
"                 ........             ........                  "
};
