/* XPM */
static char *a4eb99366bfb4decf4b0bf594a49e68bG5YgLJgk7MR5m46y[] = {
/* columns rows colors chars-per-pixel */
"64 64 145 2 ",
"   c #221F30",
".  c #291F32",
"X  c #371E35",
"o  c #222030",
"O  c #2B2231",
"+  c #2F2935",
"@  c #362133",
"#  c #3A2433",
"$  c #4C1D3B",
"%  c #501D3B",
"&  c #5C1E3D",
"*  c #601C3F",
"=  c #432535",
"-  c #4A2537",
";  c #422834",
":  c #502337",
">  c #582B37",
",  c #5B2538",
"<  c #63233C",
"1  c #642E39",
"2  c #6C2D3B",
"3  c #77233F",
"4  c #79253E",
"5  c #79283C",
"6  c #653039",
"7  c #6C1C42",
"8  c #701C43",
"9  c #7D1E44",
"0  c #652A40",
"q  c #752344",
"w  c #7D2342",
"e  c #7F2C40",
"r  c #7F364B",
"t  c #745E60",
"y  c #872C3F",
"u  c #8B293F",
"i  c #86353D",
"p  c #98333F",
"a  c #891F47",
"s  c #951F49",
"d  c #9E1C4D",
"f  c #A31E4C",
"g  c #AB1E4E",
"h  c #812344",
"j  c #8E2244",
"k  c #822D40",
"l  c #8E2940",
"z  c #852948",
"x  c #972C45",
"c  c #9B2A44",
"v  c #972249",
"b  c #982249",
"n  c #82364C",
"m  c #943640",
"M  c #9C3A41",
"N  c #9E3C50",
"B  c #A42A44",
"V  c #AA2846",
"C  c #A6224D",
"Z  c #AB214C",
"A  c #A92B49",
"S  c #B52E45",
"D  c #BD2E47",
"F  c #B2234C",
"G  c #B9274A",
"H  c #B42B4C",
"J  c #B9294B",
"K  c #A53044",
"L  c #AD3743",
"P  c #AD3A45",
"I  c #BF3747",
"U  c #B43C45",
"Y  c #B93947",
"T  c #BA3A48",
"R  c #AC2851",
"E  c #A03C50",
"W  c #BC3B57",
"Q  c #C02E47",
"!  c #C52D49",
"~  c #CC2F48",
"^  c #C3344B",
"/  c #CC3148",
"(  c #C3384A",
")  c #C8384B",
"_  c #D13149",
"`  c #D13E4B",
"'  c #DB3A4A",
"]  c #E03B4A",
"[  c #984049",
"{  c #9E4A4A",
"}  c #8E4952",
"|  c #904A52",
" . c #8F5B54",
".. c #9B5A57",
"X. c #A14B4A",
"o. c #BC4F58",
"O. c #A05551",
"+. c #A15E57",
"@. c #A2645A",
"#. c #AA7C72",
"$. c #CA4446",
"%. c #CF4448",
"&. c #D54549",
"*. c #DA444A",
"=. c #D64255",
"-. c #C55559",
";. c #D3545D",
":. c #E1454B",
">. c #E54A4A",
",. c #EB4C4B",
"<. c #EA4C4B",
"1. c #E84C4A",
"2. c #EC4D4B",
"3. c #EF4D4B",
"4. c #E94B4B",
"5. c #EC514F",
"6. c #EB514E",
"7. c #F0524F",
"8. c #EF5755",
"9. c #F15D55",
"0. c #F45D55",
"q. c #F45E55",
"w. c #F2685C",
"e. c #F4685C",
"r. c #F76A5C",
"t. c #DE6C60",
"y. c #E26B61",
"u. c #E86A63",
"i. c #EA6C64",
"p. c #EF7066",
"a. c #F37162",
"s. c #F57362",
"d. c #F37765",
"f. c #F37766",
"g. c #F47765",
"h. c #F47766",
"j. c #F47665",
"k. c #F47866",
"l. c #F47967",
"z. c #F67966",
"x. c #F77A67",
"c. c #F67966",
"v. c #FA7B67",
"b. c #FA7A67",
"n. c #FFA189",
/* pixels */
"  o   o o o o   o   o o o   o o   o o o o       o   o o o o o o   o o o o o o o             o o o       o o o o o o o o o       ",
"  2 X.@.@.@.@.@.@.r q M @.@.@.@.@.@.@.@.@.@.@.@.@.@.@.@.@.@.} q m O.@.@.@.@.@.@.@.@.@.@.@.@.@.@.@.@.@...q l { @.@.@.@.@.@.#.t   ",
"  p 8.d.d.h.f.f.d.W G 6.a.d.d.d.d.h.h.l.d.d.f.f.f.f.d.f.l.l.;.Z :.w.l.h.f.f.f.f.f.f.d.d.f.d.f.f.f.l.l.u.R ) 9.l.f.f.f.d.f.n.#.  ",
"  u ' >.>.>.>.>.>.H H >.>.>.>.>.>.>.>.>.>.>.>.>.>.>.>.>.>.>.) C *.>.>.>.>.>.>.>.>.>.>.>.>.>.>.>.1.>.>.*.C ) 1.>.>.>.>.>.>.f.@.  ",
"  u ' >.>.>.>.>.>.H H >.>.>.>.>.>.>.>.>.>.>.>.>.>.>.>.>.>.>.) C *.>.>.>.>.>.>.>.>.>.>.>.>.>.>.>.>.>.4.*.C ^ 1.>.>.>.>.>.>.a.@.o ",
"  u ] 1.1.>.1.1.4.k k 2.1.1.1.>.>.>.>.1.>.1.>.4.>.>.1.1.1.3.P < &.2.1.1.4.4.4.4.1.1.1.1.>.1.1.>.1.>.2.&.< P 2.1.>.1.4.1.1.w.{   ",
"  , K ) ) ) ) ( M ; # M ( ) ( ) ) ) ) ) ) ) ) ) ) ) ) ) ) P 6 O i T ) ^ M M M M ( ) ) ) ) ) ) ) ) ) T i O 6 P ) ) ) ( ) ) P 1   ",
"  . & f f f f s = X X - s f f f d C C C C C C C C C C C C < # # # h Z b -   O - b C C C C C C C C C w # # # < C C C C d C < +   ",
"o * C ! ! / ! Q S S S S ! ! ! Q f ^ *.*.*.*.*.*.*.*.*.*.*.&.$.$.$.&.*.*.$.> > $.=.*.*.*.*.*.*.*.*.*.&.$.$.$.%.*.*.*.^ f ` y. .o ",
"o 7 F ~ / ~ ~ ~ _ _ _ _ / / _ ! f ) 2.1.>.>.>.>.4.>.>.>.>.>.4.>.4.4.>.>.4.x x 4.1.1.1.>.>.>.>.4.4.>.>.4.4.4.>.>.1.1.) C *.v.@.o ",
"  7 F / / / / / ~ ~ ~ / ~ / ~ ! f ) >.>.>.>.>.>.>.>.>.:.>.>.>.>.>.>.>.>.>.J J >.>.>.>.>.>.>.>.>.>.>.>.>.>.>.>.>.>.1.) C *.c.@.o ",
"  7 F ~ ~ / / / ~ ~ / ~ / ~ ~ ! s ( >.>.>.>.>.>.>.>.>.>.>.>.>.>.>.>.>.>.>.A A >.>.>.>.>.>.:.>.>.>.>.>.:.>.>.>.>.>.1.( v *.s.@.o ",
"  7 F ~ ~ ~ / / ~ ~ ~ ~ / ~ _ S - M >.>.>.>.>.:.>.>.>.>.:.>.>.>.>.>.>.>.>.2 2 *.>.>.>.>.>.>.>.>.:.>.>.>.>.>.>.>.>.4.M - $.7.M o ",
"  7 a , , , 4 Z Z Z Z Z Z Z j :   ; k H H H H A 2 1 1 2 A H H H H H H A 2 O O 2 A H H H A e 1 1 1 x H H H A H H H k ; o > c w o ",
"  7 a :   # i H G H H H H H c 1 6 1 e H H H H A 2 O O 2 A H H H H H H A 2 1 1 2 A H H H H k ;   > c H H H H H H H e 6 1 1 N n o ",
"  7 G S $ M >.>.>.>.>.>.>.>.>.>.>.>.*.>.>.>.>.>.>.2 2 >.>.>.>.>.>.>.:.>.>.>.>.>.>.:.>.>.>.4.M - $.4.>.>.>.>.>.>.>.>.*.>.>.d.@.o ",
"  7 F ! s ( 4.>.>.>.>.:.>.>.>.>.>.>.>.>.>.>.>.>.>.A A >.>.>.>.>.>.>.>.>.>.>.>.>.>.1.>.>.>.1.( b &.4.>.>.>.>.>.>.>.>.>.>.>.f.@.  ",
"  7 F ! f ) >.>.>.>.>.>.>.>.>.*.>.>.>.>.>.:.>.>.>.J H >.>.>.>.>.>.:.>.>.>.>.>.>.>.*.>.>.>.1.) g *.>.>.:.>.>.>.>.>.>.>.>.>.f.@.o ",
"  7 F ! f ) 4.>.>.>.>.>.>.>.>.>.>.>.>.>.>.>.>.>.>.H H >.>.>.>.>.>.>.>.>.>.>.>.>.>.>.>.>.>.>.) C *.4.>.>.>.>.>.>.*.>.>.>.>.l.@.o ",
"  7 F ! s ( >.>.>.>.>.>.>.>.>.>.>.>.>.>.>.>.>.>.>.A A >.>.:.>.>.>.>.>.>.>.>.*.>.>.>.>.>.>.1.( v *.>.>.>.>.>.>.>.>.>.>.>.>.a.+.o ",
"  7 G S - M 4.>.>.>.>.>.>.>.>.>.>.>.>.>.>.*.>.>.>.2 2 *.>.>.>.>.>.>.>.>.>.>.>.>.>.>.>.>.>.>.M - $.>.>.>.>.>.>.>.>.>.>.>.>.5.M o ",
"  7 a :   ; k A 2 1 1 2 A H H H A H H H H H G A 2 O O 2 A H H H A H H H H H H H H H H A H k ;   > c x 1 2 > e H H H H H H H q   ",
"  8 a , , : w C < . O 2 A H H H H H H H H H H A 2 1 1 2 A H Z f H H H H H H H H H H H H H e 1 1 1 x c >   # k H H H H H H W n o ",
"  7 F ~ ~ ~ ~ ~ / < 2 >.:.>.>.>.>.>.>.>.>.>.>.>.>.>.>.>.>.4.) C *.>.>.>.>.>.>.>.>.>.>.>.>.>.>.>.>.>.4.$.- M 4.>.>.>.>.>.>.f.@.o ",
"  7 F ~ ~ ~ ~ _ / b A 1.>.>.>.>.>.>.>.>.>.>.>.>.>.>.>.>.>.>.) C *.>.>.>.>.>.>.>.>.>.>.>.>.>.>.>.>.>.>.*.v ) 1.>.>.*.>.>.>.f.@.  ",
"  7 F / ~ ~ ~ ~ ~ F J 1.>.>.>.>.>.>.>.>.>.>.>.>.>.>.>.>.>.1.) C *.>.>.>.>.>.>.>.>.>.>.>.>.>.>.>.>.>.>.*.Z ) >.>.>.>.>.>.>.l.@.o ",
"  7 F ~ / / ~ ~ _ j x 1.>.>.4.1.4.4.>.>.>.>.>.>.>.>.>.>.>.2.Y h *.1.>.>.4.>.>.4.>.1.>.>.>.>.>.>.>.1.1.*.h T 2.>.>.>.1.4.4.w...  ",
"  * C ! ! ! ~ Q S : > $.*.*.&.$.$.$.%.*.*.*.*.*.*.*.*.*.*.&.i # U &.*.*.$.$.$.%.*.*.*.*.*.*.*.*.*.*.&.U # i &.*.*.&.$.$.$.*.p   ",
"  . & f f f f s - o o - b Z w # # # < C C C C C C C C C C < O o # h g v - # # - v C C C C C C C C Z h # o O < C C < # # # h w   ",
"  $ j J J G J G l l u l F J V 5 o 1 P ) ) ) ) ) ) ) ) ) ( P M M m Y ) ( M ; ; M ) ) ) ) ) ) ) ) ) ) Y M M M P ) ) P 6 O i -.}   ",
"  7 F _ / / / / _ _ _ _ _ ~ _ D < P 3.>.1.1.1.1.4.>.4.>.1.1.,.4.2.4.>.4.4.k k 4.>.>.6.>.1.>.>.1.>.>.>.1.2.2.1.>.1.2.P < &.v.@.o ",
"  7 F ~ / / / / / / / / / ~ _ / f ) 4.>.>.>.>.>.>.>.>.>.>.>.>.>.>.>.>.>.>.H H >.>.>.>.>.>.>.>.>.>.>.>.>.>.>.>.>.>.1.) C *.c.@.o ",
"  7 F ~ ~ ~ ~ ~ ~ ~ ~ ~ / / / ! f ) >.>.>.>.>.>.>.>.>.>.>.>.>.>.>.>.>.>.>.H H >.>.>.>.>.>.>.>.>.>.>.>.>.>.>.>.>.>.1.( C *.z.@.o ",
"  7 F _ _ _ _ ~ ~ _ ~ _ _ / _ Q < P 3.4.>.>.>.>.4.4.4.4.1.>.>.4.>.>.>.1.4.k k 4.1.>.4.>.1.1.6.6.1.1.1.1.1.1.>.1.>.2.P < &.0.{ o ",
"  7 b u u u c G J J G G G G A 4   1 P ) ) ) ) ( M M M M ( ) ) ) ) ) ) ) M ; ; M ( ) ) ) ( P p p p Y ( ) ) ) ) ) ) P 6 O i ( u o ",
"o 8 9 @ O O < C C C C C C C h # # # 0 C C C Z b - O O - b C C C C C C b - # # - b Z C C C < O O # h Z C C C Z f C < # # # z q o ",
"o 7 Z B # i &.*.*.*.*.*.*.*.&.$.%.$.%.*.*.*.*.*.$.> > $.*.*.*.*.*.*.*.*.$.$.$.$.&.*.*.*.*.&.k # X.*.*.*.*.*.*.*.*.%.$.$.$.y...o ",
"o 7 G Q 9 T 2.>.1.1.>.1.>.1.>.1.4.4.4.>.>.>.>.>.>.c x >.>.>.>.>.>.>.>.>.4.4.4.4.>.>.>.>.4.7.T h *.3.>.>.>.1.>.>.>.4.1.>.1.b.@.o ",
"  7 F ! f ) >.>.>.>.>.>.>.>.>.>.>.>.>.>.>.>.>.>.>.H J >.>.>.>.>.>.>.>.>.>.>.>.>.>.>.>.>.>.1.) C *.1.>.>.>.>.>.>.>.>.>.>.>.f.@.o ",
"  7 F ! f ( 1.>.>.>.>.>.1.*.>.>.>.>.>.>.>.>.>.>.>.H H >.>.>.>.>.>.>.>.>.>.>.:.>.>.>.>.>.>.>.) C ' 1.>.>.>.>.>.>.>.>.>.>.>.f.@.o ",
"  7 F ! f ) 1.>.>.>.>.>.>.>.>.>.>.>.>.>.>.>.>.>.>.H H >.:.>.>.>.>.>.>.>.>.>.>.>.>.>.>.>.>.1.) C *.>.>.>.>.>.>.>.>.>.>.>.>.h.@.o ",
"  7 G Q * P 2.1.1.1.1.1.1.1.1.1.>.>.1.1.>.1.1.>.4.k k 4.1.1.,.2.4.>.1.>.1.>.>.1.>.1.1.>.1.2.P < *.2.>.1.1.1.>.1.1.>.1.1.>.9.{   ",
"  7 d 5 O 6 U ) ( ) ) ) ( ) ) ) ( ) ) ) ) ) ) ( M ; ; M ( P M M m Y ) ) ) ) ) ) ) ) ) ) ^ P 1 O k T ) ) ) ) ) ) ( ( ) ) ) ) u o ",
"  8 9 X @ @ & f f d f C C C C C C C C C C C C v - # # - v < O o # h Z C C C C C C C C C C 0 # # # w Z C d b C C Z C C C C R q o ",
"  7 V S S S S ! ! f G *.*.*.*.*.*.*.*.*.*.*.*.*.$.$.$.$.*.&.k # U *.*.*.*.*.*.*.*.*.*.*.*.%.$.$.$.&.*.&.f / *.*.*.*.*.*.*.u...o ",
"  7 F _ _ _ _ ~ ~ Z H 1.>.>.4.>.>.>.>.>.>.4.>.>.4.>.4.4.>.2.T h *.1.>.>.1.>.>.>.1.>.>.>.>.1.4.>.6.1.1.*.C ) 1.1.>.>.>.>.1.c.@.o ",
"  7 F / ~ ~ ~ ~ ~ C G >.>.>.>.>.>.>.>.>.>.>.>.>.>.>.>.>.>.>.) Z *.>.>.>.>.>.>.>.>.>.>.>.>.>.>.>.>.>.>.*.C ) >.>.>.>.>.>.>.d.@.o ",
"  7 F ~ / ~ ~ ~ ~ C A >.>.>.>.>.>.>.>.>.>.>.>.>.>.>.>.>.>.6.( v *.>.>.>.>.>.>.>.>.>.>.>.>.>.>.>.>.>.>.*.b ( 4.>.>.>.>.>.>.a.@.o ",
"  7 F / ~ ~ ~ / / < 2 1.>.>.>.>.>.>.>.1.>.>.>.>.>.>.>.>.>.>.M - %.1.>.>.>.>.>.>.>.>.>.>.>.>.>.>.>.>.4.$.- M 1.>.>.>.>.>.>.4.M o ",
"  X * Z Z V F C < O O 6 A S x 1 6 1 5 H H H H H H H H H H k ;   > x H H H H H H H H H H H H H H H H c > o # k H H e 1 1 1 x w o ",
"  X 3 Z Z Z F b < , , < f F j :   # k H H H H A H H H H H e 1 1 1 x H H H C f H H H A G H H H H H H x 1 1 1 e H H k ;   > E n o ",
"  7 F ~ ~ ~ ~ ~ ~ ~ ~ ~ ~ ~ _ S $ M 4.>.>.>.>.>.>.>.>.>.>.>.>.>.>.>.>.>.*.H H >.>.>.>.>.>.>.:.>.:.>.>.>.>.>.>.>.>.4.M - $.l.@.o ",
"  7 F ~ ~ ~ ~ / / / _ / / / ~ Q s ( 1.>.>.>.>.>.>.>.>.>.>.>.>.>.>.>.>.>.>.H H >.>.*.1.>.>.>.>.>.>.>.>.>.>.>.>.>.>.4.( b *.x.@.o ",
"  7 F ~ / ~ / ~ / / / / / ~ ~ ! g ) 1.>.>.>.>.>.>.>.>.>.>.>.>.>.>.>.>.>.>.J H >.>.>.>.>.>.>.>.>.>.>.>.>.>.>.>.>.>.4.) g *.l.@.o ",
"  7 F ~ _ _ / ~ / / / / / / _ ! w Y 2.>.>.>.4.>.>.>.4.4.>.>.>.>.>.>.>.>.>.x x 1.1.1.1.>.>.4.4.4.>.>.>.>.>.>.1.>.>.2.I h *.r.O.o ",
"  7 Z S S S I ! ! ! ! ! ! ! Q B @ i &.*.*.*.*.&.$.$.$.$.*.*.*.*.*.*.*.*.$.> > $.*.*.*.&.*.%.$.$.$.*.*.*.*.*.*.*.*.&.i = X.*.m o ",
"  3 9 X @ @ < C f f f f f f 4 @ o O < C Z C Z b - # # = b Z C C C C C b - o O - v C C C C < # # # w Z C C C C C C < O o # h w   ",
"  * d 3 . , c G J J G D G G V u u u c J G G G S u X # x S G J J G G J F x u u u S J G G G c , o 5 V J J G G G J G c u u u o.|   ",
"  8 G ! < p _ _ / / _ / ~ ~ _ _ _ _ _ ~ ~ ~ _ / _ 4 4 _ ~ ~ ~ _ / / _ / _ _ _ _ / _ ~ ~ _ _ B < Q _ ~ _ _ ~ ~ ~ ~ _ _ _ _ p.@.o ",
"  8 F ! f G ~ ~ / / / / ~ ~ ~ ~ ~ ~ ~ ~ ~ ~ ~ / ~ F Z ~ / ~ ~ ~ / ~ / / ~ ~ ~ ~ / ~ ~ ~ ~ ~ G f ! _ ~ ~ ~ ~ ~ ~ ~ ~ ~ ~ ~ p.@.o ",
"  * F ! f G _ ~ ~ ~ ~ ~ ~ ~ ~ ~ ~ ~ ~ ~ ~ ~ ~ ~ ~ f F ~ / / / ~ ~ ~ / / ~ / / ~ ~ ~ ~ ~ ~ ~ G f ! ~ ~ ~ ~ ~ ~ ~ ~ ~ ~ _ ~ i.@.o ",
"  8 g F f f F F F F F F F F F F F F F F F F F F F g f F F F F Z F F Z F F F F F F F F F F F C f F F F F F F F F F F F F F =.[ o ",
"  % 8 8 7 7 7 7 7 7 7 7 8 * * 8 7 7 7 7 7 7 7 7 * 8 * 8 7 7 7 7 7 7 7 7 7 7 7 7 7 7 7 7 7 7 7 7 7 7 7 7 7 7 7 7 7 7 * 8 * y < o ",
"                    o o O o o o       o o o   o . o o o           o                   o o o         o o                   o o o "
};
